<svg xmlns="http://www.w3.org/2000/svg" width="1600" height="1000" viewBox="0 0 1600 1000" role="img" aria-label="Neural mesh abstract">
  <defs>
    <linearGradient id="g1" x1="0" y1="0" x2="1" y2="1">
      <stop offset="0%" stop-color="#8B5CF6" stop-opacity="0.9" />
      <stop offset="100%" stop-color="#3B82F6" stop-opacity="0.9" />
    </linearGradient>
    <radialGradient id="glow" cx="50%" cy="35%" r="65%">
      <stop offset="0%" stop-color="#8B5CF6" stop-opacity="0.65" />
      <stop offset="40%" stop-color="#3B82F6" stop-opacity="0.35" />
      <stop offset="100%" stop-color="#0D0D0D" stop-opacity="0" />
    </radialGradient>
    <filter id="blur" x="-20%" y="-20%" width="140%" height="140%">
      <feGaussianBlur stdDeviation="40" />
    </filter>
    <pattern id="grid" width="40" height="40" patternUnits="userSpaceOnUse">
      <path d="M 40 0 L 0 0 0 40" fill="none" stroke="rgba(255,255,255,0.08)" />
    </pattern>
  </defs>

  <rect width="1600" height="1000" fill="#0D0D0D" />
  <rect width="1600" height="1000" fill="url(#grid)" />

  <g filter="url(#blur)">
    <circle cx="450" cy="240" r="280" fill="url(#glow)" />
    <circle cx="1200" cy="420" r="320" fill="url(#glow)" />
  </g>

  <g stroke="url(#g1)" stroke-opacity="0.75" fill="none">
    <path d="M100 680 C 350 520, 650 820, 900 600 S 1400 460, 1500 700" stroke-width="2" />
    <path d="M100 760 C 360 600, 600 900, 960 660 S 1300 560, 1500 820" stroke-width="1.2" stroke-opacity="0.6" />
    <path d="M100 840 C 420 700, 700 980, 1100 720 S 1280 660, 1500 900" stroke-width="1" stroke-opacity="0.45" />
  </g>

  <g fill="#FFFFFF" fill-opacity="0.5">
    <circle cx="260" cy="640" r="2" />
    <circle cx="520" cy="520" r="2" />
    <circle cx="780" cy="740" r="2" />
    <circle cx="1040" cy="600" r="2" />
    <circle cx="1280" cy="560" r="2" />
    <circle cx="1420" cy="720" r="2" />
  </g>
</svg>

